<?xml version="1.0" encoding="UTF-8" standalone="no"?>
<!-- Created with Inkscape (http://www.inkscape.org/) -->

<svg
   width="114.42483mm"
   height="47.739002mm"
   viewBox="0 0 114.42483 47.739002"
   version="1.1"
   id="svg1"
   xml:space="preserve"
   xmlns="http://www.w3.org/2000/svg"
   xmlns:svg="http://www.w3.org/2000/svg"><defs
     id="defs1" /><g
     id="layer1"
     transform="translate(-47.787587,-124.6305)"><g
       id="g10"
       transform="translate(-2.1947048,20.238707)"><rect
         style="font-variation-settings:'wght' 700;fill:none;fill-opacity:1;stroke:#404040;stroke-width:0.526925;stroke-dasharray:none;stroke-opacity:1"
         id="rect1"
         width="38.159813"
         height="25.15823"
         x="52.819469"
         y="121.48952"
         ry="1.5061042" /><path
         style="font-variation-settings:'wght' 700;fill:none;fill-opacity:1;stroke:#404040;stroke-width:0.529167;stroke-dasharray:none;stroke-opacity:1"
         d="m 49.982643,149.94793 43.669656,0.0579"
         id="path1" /><path
         style="font-variation-settings:'wght' 700;fill:none;fill-opacity:1;stroke:#404040;stroke-width:0.529167;stroke-dasharray:none;stroke-opacity:1"
         d="m 92.609788,144.5037 22.008582,0.0579"
         id="path2" /><path
         style="font-variation-settings:'wght' 700;fill:none;fill-opacity:1;stroke:#404040;stroke-width:0.529167;stroke-dasharray:none;stroke-opacity:1"
         d="m 135.29485,120.12051 -0.11583,-15.406 -63.94072,-0.0579 -0.115835,15.11642"
         id="path3" /><ellipse
         style="font-variation-settings:'wght' 700;fill:#404040;fill-opacity:1;stroke:none;stroke-width:0.529167;stroke-linecap:round;stroke-linejoin:round;stroke-dasharray:none;stroke-opacity:1"
         id="path5"
         cx="142.22205"
         cy="129.37283"
         rx="0.60406744"
         ry="0.5938291" /><ellipse
         style="font-variation-settings:'wght' 700;fill:none;fill-opacity:1;stroke:#404040;stroke-width:0.507638;stroke-linecap:round;stroke-linejoin:round;stroke-dasharray:none;stroke-opacity:1"
         id="path6"
         cx="142.048"
         cy="141.86371"
         rx="5.8261933"
         ry="5.7442861" /><path
         id="rect6"
         style="font-variation-settings:'wght' 700;fill:none;stroke:#404040;stroke-width:0.515143;stroke-linecap:round;stroke-linejoin:round"
         d="m 131.78207,136.45499 v -12.63071 c 0,-0.8097 0.65185,-1.46155 1.46155,-1.46155 h 16.99444 c 0.8097,0 1.46155,0.65185 1.46155,1.46155 v 26.16808 c 0,0.80969 -0.65185,1.46154 -1.46155,1.46154 h -14.06625" /><rect
         style="font-variation-settings:'wght' 700;fill:none;fill-opacity:1;stroke:#404040;stroke-width:0.496831;stroke-linecap:round;stroke-linejoin:round;stroke-dasharray:none;stroke-opacity:1"
         id="rect7"
         width="10.51649"
         height="15.430938"
         x="153.64221"
         y="135.9502"
         ry="1.4048324" /><circle
         style="font-variation-settings:'wght' 700;fill:#404040;fill-opacity:1;stroke:#404040;stroke-width:0.529167;stroke-linecap:round;stroke-linejoin:round;stroke-dasharray:none;stroke-opacity:1"
         id="path7"
         cx="158.86975"
         cy="148.7337"
         r="0.17405334" /><circle
         style="font-variation-settings:'wght' 700;fill:none;stroke:#404040;stroke-width:0.529167;stroke-linecap:round;stroke-linejoin:round"
         id="path4"
         cx="128.94283"
         cy="142.74423"
         r="0.9214589" /><path
         style="font-variation-settings:'wght' 700;fill:none;stroke:#404040;stroke-width:0.529167;stroke-linecap:round;stroke-linejoin:round"
         d="m 119.60536,142.80564 h 3.15344"
         id="path9" /><path
         style="font-variation-settings:'wght' 700;fill:none;stroke:#404040;stroke-width:0.529167;stroke-linecap:round;stroke-linejoin:round"
         d="m 121.18208,141.22892 v 3.15344"
         id="path10" /><path
         id="rect10"
         style="font-variation-settings:'wght' 700;fill:none;stroke:#404040;stroke-width:0.519561;stroke-linecap:round;stroke-linejoin:round"
         d="m 118.80883,138.01048 12.63312,0.12286 c 0.80079,0.008 1.3078,0.65664 1.44555,1.44555 l 1.8122,10.37886 c 0.25745,1.4745 -1.18736,1.90628 -1.98819,1.90628 -2.41665,0.15742 -3.70612,-2.34179 -5.25132,-3.81563 l -5.05194,0.0221 c -1.86246,1.99369 -2.30566,3.79358 -5.11471,3.79358 -0.80083,0 -2.51918,-0.35837 -2.10081,-2.30558 l 2.17055,-10.10242 c 0.16822,-0.78297 0.64476,-1.45334 1.44555,-1.44555 z" /></g></g></svg>
